<mxfile host="app.diagrams.net" modified="2024-06-18T11:24:54.096Z" agent="Mozilla/5.0 (Windows NT 10.0; Win64; x64) AppleWebKit/537.36 (KHTML, like Gecko) Chrome/121.0.0.0 Safari/537.36" version="24.5.5" etag="B8TUellHRoffz1J8uI26" type="device">
  <diagram id="M3G6-hiFHfcs6Wh8J-Cd" name="Página-1">
    <mxGraphModel dx="1434" dy="1951" grid="1" gridSize="10" guides="1" tooltips="1" connect="1" arrows="1" fold="1" page="1" pageScale="1" pageWidth="827" pageHeight="1169" math="0" shadow="0">
      <root>
        <mxCell id="0" />
        <mxCell id="1" parent="0" />
        <mxCell id="p2QRWkhYwATaWbIpHsL2-1" value="" style="rounded=0;whiteSpace=wrap;html=1;" vertex="1" parent="1">
          <mxGeometry x="100" y="150" width="184" height="290" as="geometry" />
        </mxCell>
        <mxCell id="p2QRWkhYwATaWbIpHsL2-2" value="cliente" style="rounded=0;whiteSpace=wrap;html=1;" vertex="1" parent="1">
          <mxGeometry x="102" y="150" width="180" height="60" as="geometry" />
        </mxCell>
        <mxCell id="p2QRWkhYwATaWbIpHsL2-3" value="CPF" style="text;html=1;align=center;verticalAlign=middle;whiteSpace=wrap;rounded=0;" vertex="1" parent="1">
          <mxGeometry x="99" y="220" width="60" height="30" as="geometry" />
        </mxCell>
        <mxCell id="p2QRWkhYwATaWbIpHsL2-4" value="Nome" style="text;html=1;align=center;verticalAlign=middle;whiteSpace=wrap;rounded=0;" vertex="1" parent="1">
          <mxGeometry x="100" y="250" width="60" height="30" as="geometry" />
        </mxCell>
        <mxCell id="p2QRWkhYwATaWbIpHsL2-5" value="Localização" style="text;html=1;align=center;verticalAlign=middle;whiteSpace=wrap;rounded=0;" vertex="1" parent="1">
          <mxGeometry x="116" y="290" width="60" height="30" as="geometry" />
        </mxCell>
        <mxCell id="p2QRWkhYwATaWbIpHsL2-7" value="" style="rounded=0;whiteSpace=wrap;html=1;" vertex="1" parent="1">
          <mxGeometry x="350" y="150" width="180" height="290" as="geometry" />
        </mxCell>
        <mxCell id="p2QRWkhYwATaWbIpHsL2-8" value="Fornecedor" style="rounded=0;whiteSpace=wrap;html=1;" vertex="1" parent="1">
          <mxGeometry x="350" y="150" width="180" height="60" as="geometry" />
        </mxCell>
        <mxCell id="p2QRWkhYwATaWbIpHsL2-9" value="Monitoramento" style="text;html=1;align=center;verticalAlign=middle;whiteSpace=wrap;rounded=0;" vertex="1" parent="1">
          <mxGeometry x="373" y="220" width="60" height="30" as="geometry" />
        </mxCell>
        <mxCell id="p2QRWkhYwATaWbIpHsL2-11" value="" style="rounded=0;whiteSpace=wrap;html=1;" vertex="1" parent="1">
          <mxGeometry x="101" y="331" width="181" height="110" as="geometry" />
        </mxCell>
        <mxCell id="p2QRWkhYwATaWbIpHsL2-12" value="*GetCPF" style="text;html=1;align=center;verticalAlign=middle;whiteSpace=wrap;rounded=0;" vertex="1" parent="1">
          <mxGeometry x="100" y="331" width="60" height="30" as="geometry" />
        </mxCell>
        <mxCell id="p2QRWkhYwATaWbIpHsL2-13" value="*SetNome" style="text;html=1;align=center;verticalAlign=middle;whiteSpace=wrap;rounded=0;" vertex="1" parent="1">
          <mxGeometry x="102" y="350" width="60" height="30" as="geometry" />
        </mxCell>
        <mxCell id="p2QRWkhYwATaWbIpHsL2-15" value="*GetLocalização" style="text;html=1;align=center;verticalAlign=middle;whiteSpace=wrap;rounded=0;" vertex="1" parent="1">
          <mxGeometry x="118" y="371" width="60" height="30" as="geometry" />
        </mxCell>
        <mxCell id="p2QRWkhYwATaWbIpHsL2-16" value="" style="rounded=0;whiteSpace=wrap;html=1;" vertex="1" parent="1">
          <mxGeometry x="350" y="331" width="180" height="109" as="geometry" />
        </mxCell>
        <mxCell id="p2QRWkhYwATaWbIpHsL2-17" value="Get" style="text;html=1;align=center;verticalAlign=middle;whiteSpace=wrap;rounded=0;" vertex="1" parent="1">
          <mxGeometry x="350" y="331" width="60" height="30" as="geometry" />
        </mxCell>
        <mxCell id="p2QRWkhYwATaWbIpHsL2-18" value="" style="rounded=0;whiteSpace=wrap;html=1;" vertex="1" parent="1">
          <mxGeometry x="348" y="-267" width="180" height="280" as="geometry" />
        </mxCell>
        <mxCell id="p2QRWkhYwATaWbIpHsL2-19" value="Vendas" style="rounded=0;whiteSpace=wrap;html=1;" vertex="1" parent="1">
          <mxGeometry x="347" y="-267" width="182" height="60" as="geometry" />
        </mxCell>
        <mxCell id="p2QRWkhYwATaWbIpHsL2-20" value="Cliente" style="text;html=1;align=center;verticalAlign=middle;whiteSpace=wrap;rounded=0;" vertex="1" parent="1">
          <mxGeometry x="348" y="-192" width="60" height="30" as="geometry" />
        </mxCell>
        <mxCell id="p2QRWkhYwATaWbIpHsL2-21" value="Data do pedido" style="text;html=1;align=center;verticalAlign=middle;whiteSpace=wrap;rounded=0;" vertex="1" parent="1">
          <mxGeometry x="356" y="-162" width="90" height="30" as="geometry" />
        </mxCell>
        <mxCell id="p2QRWkhYwATaWbIpHsL2-22" value="Devolvido" style="text;html=1;align=center;verticalAlign=middle;whiteSpace=wrap;rounded=0;" vertex="1" parent="1">
          <mxGeometry x="356" y="-132" width="60" height="30" as="geometry" />
        </mxCell>
      </root>
    </mxGraphModel>
  </diagram>
</mxfile>
